<?xml version="1.0" encoding="UTF-8" standalone="no"?>
<!-- Created with Inkscape (http://www.inkscape.org/) -->

<svg
   width="64.0px"
   height="64.0px"
   viewBox="0 0 64.0 64.0"
   version="1.1"
   id="SVGRoot"
   sodipodi:docname="flatpak-flatdrake2.svg"
   inkscape:version="1.2.2 (b0a8486541, 2022-12-01)"
   xml:space="preserve"
   xmlns:inkscape="http://www.inkscape.org/namespaces/inkscape"
   xmlns:sodipodi="http://sodipodi.sourceforge.net/DTD/sodipodi-0.dtd"
   xmlns:xlink="http://www.w3.org/1999/xlink"
   xmlns="http://www.w3.org/2000/svg"
   xmlns:svg="http://www.w3.org/2000/svg"
   xmlns:rdf="http://www.w3.org/1999/02/22-rdf-syntax-ns#"
   xmlns:cc="http://creativecommons.org/ns#"
   xmlns:dc="http://purl.org/dc/elements/1.1/"><title
     id="title5060">flatdrake</title><sodipodi:namedview
     id="namedview4443"
     pagecolor="#ffffff"
     bordercolor="#666666"
     borderopacity="1.0"
     inkscape:pageshadow="2"
     inkscape:pageopacity="0.0"
     inkscape:pagecheckerboard="0"
     inkscape:document-units="px"
     showgrid="true"
     inkscape:zoom="3.3260208"
     inkscape:cx="-10.974075"
     inkscape:cy="33.222883"
     inkscape:current-layer="layer1"
     inkscape:showpageshadow="2"
     inkscape:deskcolor="#d1d1d1"
     inkscape:window-width="1440"
     inkscape:window-height="827"
     inkscape:window-x="0"
     inkscape:window-y="0"
     inkscape:window-maximized="1"
     inkscape:lockguides="true"
     showguides="true"><inkscape:grid
       type="xygrid"
       id="grid4449" /></sodipodi:namedview><defs
     id="defs4438"><linearGradient
       x1="48.299999"
       y1="135.17"
       x2="72.260002"
       y2="131"
       id="O"
       xlink:href="#D"
       gradientUnits="userSpaceOnUse" /><linearGradient
       id="D"><stop
         id="T" /><stop
         id="U"
         offset="1"
         stop-opacity="0" /></linearGradient><filter
       color-interpolation-filters="sRGB"
       id="N"
       x="-0.15687688"
       y="-0.10123229"
       width="1.3137538"
       height="1.2024646"><feGaussianBlur
         stdDeviation="1.0013"
         id="e" /></filter><radialGradient
       cx="211.14999"
       cy="382.63"
       r="110.72"
       id="I"
       xlink:href="#H"
       gradientUnits="userSpaceOnUse"
       gradientTransform="matrix(0.13337487,-0.58579661,0.43334796,0.09866518,-140.53171,197.47031)" /><linearGradient
       id="H"><stop
         id="b"
         stop-color="#eddabc" /><stop
         id="c"
         offset="1"
         stop-color="#d8af6e" /></linearGradient><radialGradient
       cx="445.35999"
       cy="201.92999"
       r="119.48"
       id="J"
       xlink:href="#G"
       gradientUnits="userSpaceOnUse"
       gradientTransform="matrix(-0.37117278,0.14517548,-0.14805715,-0.37854038,312.3712,40.739168)" /><linearGradient
       id="G"><stop
         id="Z"
         stop-color="#a37a39" /><stop
         id="a"
         offset="1"
         stop-color="#c39854" /></linearGradient><radialGradient
       cx="212.44"
       cy="280.07001"
       r="228.86"
       id="L"
       xlink:href="#F"
       gradientUnits="userSpaceOnUse"
       gradientTransform="matrix(0.03919011,-0.09570432,0.16373591,0.06704846,-2.2215551,38.191936)" /><linearGradient
       id="F"><stop
         id="X"
         stop-color="#c29650" /><stop
         id="Y"
         offset="1"
         stop-color="#cca86e" /></linearGradient><radialGradient
       cx="139.25999"
       cy="162.96001"
       r="134.88"
       id="K-2"
       xlink:href="#E"
       gradientUnits="userSpaceOnUse"
       gradientTransform="matrix(0.25346949,-0.0649835,0.01310825,0.051129,-21.302212,16.823217)" /><linearGradient
       id="E"><stop
         id="V"
         stop-color="#fff" /><stop
         id="W"
         offset="1"
         stop-color="#eddabc" /></linearGradient><radialGradient
       inkscape:collect="always"
       xlink:href="#E"
       id="radialGradient3827"
       gradientUnits="userSpaceOnUse"
       gradientTransform="matrix(0.50693897,-0.129967,0.0262165,0.10225801,99.862361,21.460143)"
       cx="139.25999"
       cy="162.96001"
       r="134.88" /></defs><g
     inkscape:label="Livello 1"
     inkscape:groupmode="layer"
     id="layer1"><g
       id="g3868"
       transform="matrix(0.5,0,0,0.5,-1.470475,0.78623655)"><path
         id="1"
         transform="matrix(0.85693077,-0.4706646,0.46259458,0.87188005,2.2336477,0.32237861)"
         d="m 55.132413,114.01574 h 13.842394 l 1.476115,23.73867 H 56.608528 Z"
         style="opacity:0.425;fill:url(#O);filter:url(#N)"
         inkscape:connector-curvature="0" /><path
         id="3"
         transform="matrix(0.48733016,0.40593889,-0.40593889,0.48733016,80.572751,-24.960797)"
         d="m 97.75,12.875 a 1.6878972,1.6878972 0 0 0 -0.59375,0.15625 L 11.375,51.65625 a 1.6878972,1.6878972 0 0 0 -0.65625,0.5 L -46.5625,127.875 a 1.6878972,1.6878972 0 0 0 0.09375,2.15625 l 73.1875,80.65625 a 1.6878972,1.6878972 0 0 0 1.53125,0.53125 l 94.96875,-16.5625 a 1.6878972,1.6878972 0 0 0 1.28125,-1 L 163.46875,103.5 a 1.6878972,1.6878972 0 0 0 -0.1875,-1.65625 L 99.21875,13.5625 A 1.6878972,1.6878972 0 0 0 97.75,12.875 Z"
         inkscape:connector-curvature="0"
         style="fill:#debd87" /><path
         id="4"
         d="M 6.2472459,20.340269 9.1332307,88.517696 61.715239,118.75711 62.4297,40.768071 Z"
         style="fill:url(#I)"
         inkscape:connector-curvature="0" /><path
         id="5"
         d="m 122.34471,21.870475 -59.789046,18.790616 -0.840425,78.096019 0.428141,0.24578 55.57899,-28.130421 z"
         style="fill:url(#J)"
         inkscape:connector-curvature="0" /><path
         id="6"
         d="M 64.854937,5.8469168 6.2155318,19.507773 6.2472458,20.340269 62.555664,40.661091 122.34471,21.870475 v -0.0079 L 64.854937,5.8469295 Z"
         style="fill:url(#L)"
         inkscape:connector-curvature="0" /><path
         id="7"
         d="M 6.0980104,19.74213 62.671811,40.820785 122.74052,21.708015"
         inkscape:connector-curvature="0"
         style="fill:none;stroke:#debc85;stroke-width:1.123" /><path
         id="8"
         d="M 62.562595,40.820785 62.125732,119.45619"
         inkscape:connector-curvature="0"
         style="fill:none;stroke:#debc85;stroke-width:1.123" /></g><path
       style="opacity:0.708;fill:none;stroke:#000000;stroke-width:0.1905"
       inkscape:connector-curvature="0"
       id="B"
       d="M 15.71812,15.648352 44.307549,7.391922" /><path
       style="opacity:0.708;fill:url(#K-2);stroke-width:0.5"
       inkscape:connector-curvature="0"
       id="C"
       d="m 42.701743,6.4416175 -29.167693,8.2649485 -0.206142,4.578726 0.669961,-0.225963 -0.531212,0.535175 0.02775,0.01188 0.987102,-0.372641 -0.130821,0.614461 0.610497,-0.261641 -0.210106,0.459855 0.01585,0.0079 0.67789,-0.404355 0.0436,0.634282 0.416248,-0.368677 0.237856,0.455891 0.396426,-0.218035 0.13082,0.527248 0.479677,-0.440034 c 0,0 0.05967,0.112939 0.07532,0.142714 L 17.458669,16.621306 47.549808,7.78963 42.70174,6.4416175 Z" /><g
       transform="matrix(-0.50182485,-0.01330696,-0.01323985,0.5043683,133.71876,8.4456766)"
       id="g3825"><path
         id="path3821"
         d="M 173.90303,19.110414 231.08188,2.5975542"
         style="opacity:0.708;fill:none;stroke:#000000;stroke-width:0.381"
         inkscape:connector-curvature="0" /><path
         id="path3823"
         d="m 227.87027,0.69694515 -58.33538,16.52989585 -0.41229,9.157452 1.33992,-0.451926 -1.06242,1.070351 0.0555,0.02377 1.9742,-0.745282 -0.26164,1.228922 1.221,-0.523283 -0.42022,0.91971 0.0317,0.01586 1.35578,-0.80871 0.0872,1.268565 0.8325,-0.737354 0.47571,0.911781 0.79285,-0.436069 0.26165,1.054495 0.95935,-0.880067 c 0,0 0.11934,0.225878 0.15064,0.285427 l 0.46778,-7.524162 60.18228,-17.6633508 -9.69613,-2.69602505 z"
         style="opacity:0.708;fill:url(#radialGradient3827)"
         inkscape:connector-curvature="0" /></g><g
       id="g1456"
       transform="matrix(1.2,0,0,1.2,-7.600199,-6.8)"><path
         id="path81"
         style="color:#3daee9;fill:#209ae7;fill-opacity:1;stroke:none;stroke-width:1.13637"
         d="M 44.5,21.5 A 12.5,12.5 0 0 0 32,34 12.5,12.5 0 0 0 44.5,46.5 12.5,12.5 0 0 0 57,34 12.5,12.5 0 0 0 44.5,21.5 Z"
         inkscape:connector-curvature="0" /><path
         id="path85"
         style="color:#232629;fill:currentColor;fill-opacity:0.6;stroke:none;stroke-width:1.13637"
         d="M 44.5,21.5 A 12.5,12.5 0 0 0 32,34 12.5,12.5 0 0 0 44.5,46.5 12.5,12.5 0 0 0 57,34 12.5,12.5 0 0 0 44.5,21.5 Z m 0,1.136364 A 11.363637,11.363637 0 0 1 55.863635,34 11.363637,11.363637 0 0 1 44.5,45.363636 11.363637,11.363637 0 0 1 33.136365,34 11.363637,11.363637 0 0 1 44.5,22.636364 Z"
         inkscape:connector-curvature="0" /><path
         d="m 44.5,26.17 -0.358333,0.235833 -9.641667,6.31 v 5.626666 L 39.8275,41.829166 44.5,38.770833 49.1725,41.83 54.5,38.342499 v -5.626666 z m 0,0.69 4.528333,2.963333 L 46.764167,31.305 44.5,32.787499 42.235833,31.304166 39.971667,29.823333 Z m -4.675,3.06 4.528333,2.963333 -4.506666,2.95 -4.528334,-2.964167 4.5075,-2.949999 z m 9.35,0 4.525833,2.961666 L 49.1725,35.845833 44.645,32.883333 49.174167,29.92 Z m -13.904167,3.135833 4.4825,2.933333 a 0.1025,0.06666667 0 0 0 0.0225,0.01083 v 4.705833 l -4.505,-2.95 z m 9.344167,0.09583 4.506667,2.95 v 4.72 l -4.506667,-2.95 z"
         id="path1390"
         style="fill:#f9f9f9;fill-opacity:1;stroke:none;stroke-width:0.833333" /></g></g><metadata
     id="metadata5058"><rdf:RDF><cc:Work
         rdf:about=""><dc:title>flatdrake</dc:title><dc:creator><cc:Agent><dc:title>ruru</dc:title></cc:Agent></dc:creator><dc:date>20230403</dc:date></cc:Work></rdf:RDF></metadata></svg>
